<svg width="134" height="24" viewBox="0 0 134 24" fill="none" xmlns="http://www.w3.org/2000/svg">
<path d="M3.41992 23H0.929688V1.58398H12.8535V3.78125H3.41992V11.6328H12.2822V13.8154H3.41992V23ZM29.9043 14.9434C29.9043 16.2617 29.7334 17.4385 29.3916 18.4736C29.0498 19.5088 28.5566 20.3828 27.9121 21.0957C27.2676 21.8086 26.4863 22.3555 25.5684 22.7363C24.6602 23.1074 23.6299 23.293 22.4775 23.293C21.4033 23.293 20.417 23.1074 19.5186 22.7363C18.6299 22.3555 17.8584 21.8086 17.2041 21.0957C16.5596 20.3828 16.0566 19.5088 15.6953 18.4736C15.3438 17.4385 15.168 16.2617 15.168 14.9434C15.168 13.1855 15.4658 11.6914 16.0615 10.4609C16.6572 9.2207 17.5068 8.27832 18.6104 7.63379C19.7236 6.97949 21.0469 6.65234 22.5801 6.65234C24.0449 6.65234 25.3242 6.97949 26.418 7.63379C27.5215 8.28809 28.376 9.23535 28.9814 10.4756C29.5967 11.7061 29.9043 13.1953 29.9043 14.9434ZM17.6875 14.9434C17.6875 16.2324 17.8584 17.3506 18.2002 18.2979C18.542 19.2451 19.0693 19.9775 19.7822 20.4951C20.4951 21.0127 21.4131 21.2715 22.5361 21.2715C23.6494 21.2715 24.5625 21.0127 25.2754 20.4951C25.998 19.9775 26.5303 19.2451 26.8721 18.2979C27.2139 17.3506 27.3848 16.2324 27.3848 14.9434C27.3848 13.6641 27.2139 12.5605 26.8721 11.6328C26.5303 10.6953 26.0029 9.97266 25.29 9.46484C24.5771 8.95703 23.6543 8.70312 22.5215 8.70312C20.8516 8.70312 19.626 9.25488 18.8447 10.3584C18.0732 11.4619 17.6875 12.9902 17.6875 14.9434ZM47.9512 14.9434C47.9512 16.2617 47.7803 17.4385 47.4385 18.4736C47.0967 19.5088 46.6035 20.3828 45.959 21.0957C45.3145 21.8086 44.5332 22.3555 43.6152 22.7363C42.707 23.1074 41.6768 23.293 40.5244 23.293C39.4502 23.293 38.4639 23.1074 37.5654 22.7363C36.6768 22.3555 35.9053 21.8086 35.251 21.0957C34.6064 20.3828 34.1035 19.5088 33.7422 18.4736C33.3906 17.4385 33.2148 16.2617 33.2148 14.9434C33.2148 13.1855 33.5127 11.6914 34.1084 10.4609C34.7041 9.2207 35.5537 8.27832 36.6572 7.63379C37.7705 6.97949 39.0938 6.65234 40.627 6.65234C42.0918 6.65234 43.3711 6.97949 44.4648 7.63379C45.5684 8.28809 46.4229 9.23535 47.0283 10.4756C47.6436 11.7061 47.9512 13.1953 47.9512 14.9434ZM35.7344 14.9434C35.7344 16.2324 35.9053 17.3506 36.2471 18.2979C36.5889 19.2451 37.1162 19.9775 37.8291 20.4951C38.542 21.0127 39.46 21.2715 40.583 21.2715C41.6963 21.2715 42.6094 21.0127 43.3223 20.4951C44.0449 19.9775 44.5771 19.2451 44.9189 18.2979C45.2607 17.3506 45.4316 16.2324 45.4316 14.9434C45.4316 13.6641 45.2607 12.5605 44.9189 11.6328C44.5771 10.6953 44.0498 9.97266 43.3369 9.46484C42.624 8.95703 41.7012 8.70312 40.5684 8.70312C38.8984 8.70312 37.6729 9.25488 36.8916 10.3584C36.1201 11.4619 35.7344 12.9902 35.7344 14.9434ZM57.8682 23.293C55.8369 23.293 54.2256 22.5996 53.0342 21.2129C51.8525 19.8262 51.2617 17.7656 51.2617 15.0312C51.2617 12.2676 51.8672 10.1826 53.0781 8.77637C54.2891 7.36035 55.9004 6.65234 57.9121 6.65234C58.7617 6.65234 59.5039 6.76465 60.1387 6.98926C60.7734 7.21387 61.3203 7.5166 61.7793 7.89746C62.2383 8.26855 62.624 8.69336 62.9365 9.17188H63.1123C63.0732 8.86914 63.0342 8.4541 62.9951 7.92676C62.9561 7.39941 62.9365 6.96973 62.9365 6.6377V0.207031H65.3682V23H63.4053L63.0391 20.7148H62.9365C62.6338 21.1934 62.248 21.6279 61.7793 22.0186C61.3203 22.4092 60.7686 22.7217 60.124 22.9561C59.4893 23.1807 58.7373 23.293 57.8682 23.293ZM58.249 21.2715C59.9678 21.2715 61.1836 20.7832 61.8965 19.8066C62.6094 18.8301 62.9658 17.3799 62.9658 15.4561V15.0166C62.9658 12.9756 62.624 11.4082 61.9404 10.3145C61.2666 9.2207 60.0361 8.67383 58.249 8.67383C56.7549 8.67383 55.6367 9.25 54.8945 10.4023C54.1523 11.5449 53.7812 13.1074 53.7812 15.0898C53.7812 17.0625 54.1475 18.5859 54.8799 19.6602C55.6221 20.7344 56.7451 21.2715 58.249 21.2715Z" fill="white"/>
<path d="M74.7725 0.207031V4.85059C74.7725 5.66113 74.7432 6.43262 74.6846 7.16504C74.6357 7.89746 74.5967 8.41504 74.5674 8.71777H74.8018C75.1533 8.15137 75.5684 7.69238 76.0469 7.34082C76.5352 6.98926 77.0723 6.73047 77.6582 6.56445C78.2441 6.39844 78.874 6.31543 79.5479 6.31543C80.7295 6.31543 81.7598 6.52539 82.6387 6.94531C83.5176 7.35547 84.2012 8.00488 84.6895 8.89355C85.1777 9.77246 85.4219 10.915 85.4219 12.3213V23H80.9541V13.4346C80.9541 12.2627 80.7393 11.3789 80.3096 10.7832C79.8799 10.1875 79.2158 9.88965 78.3174 9.88965C77.4189 9.88965 76.7109 10.0996 76.1934 10.5195C75.6758 10.9297 75.3096 11.54 75.0947 12.3506C74.8799 13.1514 74.7725 14.1328 74.7725 15.2949V23H70.3047V0.207031H74.7725ZM105.051 6.62305V23H101.623L101.022 20.9053H100.788C100.437 21.4619 99.9971 21.916 99.4697 22.2676C98.9424 22.6191 98.3613 22.8779 97.7266 23.0439C97.0918 23.21 96.4326 23.293 95.749 23.293C94.5771 23.293 93.5566 23.0879 92.6875 22.6777C91.8184 22.2578 91.1396 21.6084 90.6514 20.7295C90.1729 19.8506 89.9336 18.708 89.9336 17.3018V6.62305H94.4014V16.1885C94.4014 17.3604 94.6113 18.2441 95.0312 18.8398C95.4512 19.4355 96.1201 19.7334 97.0381 19.7334C97.9463 19.7334 98.6592 19.5283 99.1768 19.1182C99.6943 18.6982 100.056 18.0879 100.261 17.2871C100.476 16.4766 100.583 15.4902 100.583 14.3281V6.62305H105.051ZM114.206 0.207031V5.50977C114.206 6.125 114.187 6.73535 114.147 7.34082C114.118 7.94629 114.079 8.41504 114.03 8.74707H114.206C114.636 8.07324 115.222 7.50195 115.964 7.0332C116.706 6.55469 117.668 6.31543 118.85 6.31543C120.686 6.31543 122.175 7.0332 123.317 8.46875C124.46 9.9043 125.031 12.0088 125.031 14.7822C125.031 16.6475 124.768 18.2148 124.24 19.4844C123.713 20.7441 122.976 21.6963 122.028 22.3408C121.081 22.9756 119.982 23.293 118.732 23.293C117.531 23.293 116.584 23.0781 115.891 22.6484C115.197 22.2188 114.636 21.7354 114.206 21.1982H113.898L113.151 23H109.738V0.207031H114.206ZM117.414 9.88965C116.633 9.88965 116.013 10.0508 115.554 10.373C115.095 10.6953 114.758 11.1787 114.543 11.8232C114.338 12.4678 114.226 13.2832 114.206 14.2695V14.7529C114.206 16.3447 114.44 17.5654 114.909 18.415C115.378 19.2549 116.232 19.6748 117.473 19.6748C118.391 19.6748 119.118 19.25 119.655 18.4004C120.202 17.5508 120.476 16.3252 120.476 14.7236C120.476 13.1221 120.202 11.916 119.655 11.1055C119.108 10.2949 118.361 9.88965 117.414 9.88965ZM128.093 20.9053C128.093 19.9873 128.342 19.3428 128.84 18.9717C129.348 18.6006 129.958 18.415 130.671 18.415C131.364 18.415 131.96 18.6006 132.458 18.9717C132.966 19.3428 133.22 19.9873 133.22 20.9053C133.22 21.7842 132.966 22.4189 132.458 22.8096C131.96 23.2002 131.364 23.3955 130.671 23.3955C129.958 23.3955 129.348 23.2002 128.84 22.8096C128.342 22.4189 128.093 21.7842 128.093 20.9053Z" fill="#FCC232"/>
</svg>
