<svg width="16" height="15" viewBox="0 0 16 15" fill="none" xmlns="http://www.w3.org/2000/svg">
<path d="M7.54102 0.351978C7.57695 0.241421 7.73336 0.241421 7.76928 0.351979L9.48045 5.61842C9.49652 5.66787 9.54259 5.70134 9.59458 5.70134H15.132C15.2483 5.70134 15.2966 5.8501 15.2026 5.91842L10.7227 9.17327C10.6806 9.20382 10.663 9.25799 10.6791 9.30743L12.3903 14.5739C12.4262 14.6844 12.2996 14.7764 12.2056 14.708L7.72569 11.4532C7.68363 11.4226 7.62668 11.4226 7.58462 11.4532L3.10471 14.708C3.01067 14.7764 2.88413 14.6844 2.92005 14.5739L4.63122 9.30743C4.64729 9.25799 4.62969 9.20382 4.58763 9.17327L0.107723 5.91842C0.0136772 5.8501 0.0620103 5.70134 0.178257 5.70134H5.71573C5.76771 5.70134 5.81379 5.66787 5.82985 5.61842L7.54102 0.351978Z" fill="#FFBA0E"/>
</svg>
