<svg width="135" height="24" viewBox="0 0 135 24" fill="none" xmlns="http://www.w3.org/2000/svg">
<path d="M4.29883 23H0.8125V1.58398H12.9121V4.54297H4.29883V11.2227H12.3555V14.167H4.29883V23ZM30.8125 14.8555C30.8125 16.2031 30.6367 17.3994 30.2852 18.4443C29.9336 19.4893 29.4209 20.373 28.7471 21.0957C28.0732 21.8086 27.2627 22.3555 26.3154 22.7363C25.3682 23.1074 24.2988 23.293 23.1074 23.293C21.9941 23.293 20.9736 23.1074 20.0459 22.7363C19.1182 22.3555 18.3125 21.8086 17.6289 21.0957C16.9551 20.373 16.4326 19.4893 16.0615 18.4443C15.6904 17.3994 15.5049 16.2031 15.5049 14.8555C15.5049 13.0684 15.8125 11.5547 16.4277 10.3145C17.0527 9.06445 17.9414 8.1123 19.0938 7.45801C20.2461 6.80371 21.6182 6.47656 23.21 6.47656C24.7041 6.47656 26.0225 6.80371 27.165 7.45801C28.3076 8.1123 29.2012 9.06445 29.8457 10.3145C30.4902 11.5645 30.8125 13.0781 30.8125 14.8555ZM19.0498 14.8555C19.0498 16.0371 19.1914 17.0479 19.4746 17.8877C19.7676 18.7275 20.2168 19.3721 20.8223 19.8213C21.4277 20.2607 22.209 20.4805 23.166 20.4805C24.123 20.4805 24.9043 20.2607 25.5098 19.8213C26.1152 19.3721 26.5596 18.7275 26.8428 17.8877C27.126 17.0479 27.2676 16.0371 27.2676 14.8555C27.2676 13.6738 27.126 12.6729 26.8428 11.8525C26.5596 11.0225 26.1152 10.3926 25.5098 9.96289C24.9043 9.52344 24.1182 9.30371 23.1514 9.30371C21.7256 9.30371 20.6855 9.78223 20.0312 10.7393C19.377 11.6963 19.0498 13.0684 19.0498 14.8555ZM49.123 14.8555C49.123 16.2031 48.9473 17.3994 48.5957 18.4443C48.2441 19.4893 47.7314 20.373 47.0576 21.0957C46.3838 21.8086 45.5732 22.3555 44.626 22.7363C43.6787 23.1074 42.6094 23.293 41.418 23.293C40.3047 23.293 39.2842 23.1074 38.3564 22.7363C37.4287 22.3555 36.623 21.8086 35.9395 21.0957C35.2656 20.373 34.7432 19.4893 34.3721 18.4443C34.001 17.3994 33.8154 16.2031 33.8154 14.8555C33.8154 13.0684 34.123 11.5547 34.7383 10.3145C35.3633 9.06445 36.252 8.1123 37.4043 7.45801C38.5566 6.80371 39.9287 6.47656 41.5205 6.47656C43.0146 6.47656 44.333 6.80371 45.4756 7.45801C46.6182 8.1123 47.5117 9.06445 48.1562 10.3145C48.8008 11.5645 49.123 13.0781 49.123 14.8555ZM37.3604 14.8555C37.3604 16.0371 37.502 17.0479 37.7852 17.8877C38.0781 18.7275 38.5273 19.3721 39.1328 19.8213C39.7383 20.2607 40.5195 20.4805 41.4766 20.4805C42.4336 20.4805 43.2148 20.2607 43.8203 19.8213C44.4258 19.3721 44.8701 18.7275 45.1533 17.8877C45.4365 17.0479 45.5781 16.0371 45.5781 14.8555C45.5781 13.6738 45.4365 12.6729 45.1533 11.8525C44.8701 11.0225 44.4258 10.3926 43.8203 9.96289C43.2148 9.52344 42.4287 9.30371 41.4619 9.30371C40.0361 9.30371 38.9961 9.78223 38.3418 10.7393C37.6875 11.6963 37.3604 13.0684 37.3604 14.8555ZM58.5273 23.293C56.5938 23.293 55.041 22.5898 53.8691 21.1836C52.707 19.7676 52.126 17.6826 52.126 14.9287C52.126 12.1455 52.7168 10.041 53.8984 8.61523C55.0898 7.18945 56.6572 6.47656 58.6006 6.47656C59.4209 6.47656 60.1387 6.58887 60.7539 6.81348C61.3691 7.02832 61.8965 7.32129 62.3359 7.69238C62.7852 8.06348 63.166 8.47852 63.4785 8.9375H63.6396C63.5908 8.63477 63.5322 8.2002 63.4639 7.63379C63.4053 7.05762 63.376 6.52539 63.376 6.03711V0.207031H66.833V23H64.1377L63.5225 20.7881H63.376C63.083 21.2568 62.7119 21.6816 62.2627 22.0625C61.8232 22.4336 61.2959 22.7314 60.6807 22.9561C60.0752 23.1807 59.3574 23.293 58.5273 23.293ZM59.4941 20.4951C60.9688 20.4951 62.0088 20.0703 62.6143 19.2207C63.2197 18.3711 63.5322 17.0967 63.5518 15.3975V14.9434C63.5518 13.127 63.2588 11.7354 62.6729 10.7686C62.0869 9.79199 61.0176 9.30371 59.4648 9.30371C58.2246 9.30371 57.2773 9.80664 56.623 10.8125C55.9785 11.8086 55.6562 13.2002 55.6562 14.9873C55.6562 16.7744 55.9785 18.1416 56.623 19.0889C57.2773 20.0264 58.2344 20.4951 59.4941 20.4951Z" fill="#FFFFFE"/>
<path d="M76.1201 0.207031V4.85059C76.1201 5.66113 76.0908 6.43262 76.0322 7.16504C75.9834 7.89746 75.9443 8.41504 75.915 8.71777H76.1494C76.501 8.15137 76.916 7.69238 77.3945 7.34082C77.8828 6.98926 78.4199 6.73047 79.0059 6.56445C79.5918 6.39844 80.2217 6.31543 80.8955 6.31543C82.0771 6.31543 83.1074 6.52539 83.9863 6.94531C84.8652 7.35547 85.5488 8.00488 86.0371 8.89355C86.5254 9.77246 86.7695 10.915 86.7695 12.3213V23H82.3018V13.4346C82.3018 12.2627 82.0869 11.3789 81.6572 10.7832C81.2275 10.1875 80.5635 9.88965 79.665 9.88965C78.7666 9.88965 78.0586 10.0996 77.541 10.5195C77.0234 10.9297 76.6572 11.54 76.4424 12.3506C76.2275 13.1514 76.1201 14.1328 76.1201 15.2949V23H71.6523V0.207031H76.1201ZM106.398 6.62305V23H102.971L102.37 20.9053H102.136C101.784 21.4619 101.345 21.916 100.817 22.2676C100.29 22.6191 99.709 22.8779 99.0742 23.0439C98.4395 23.21 97.7803 23.293 97.0967 23.293C95.9248 23.293 94.9043 23.0879 94.0352 22.6777C93.166 22.2578 92.4873 21.6084 91.999 20.7295C91.5205 19.8506 91.2812 18.708 91.2812 17.3018V6.62305H95.749V16.1885C95.749 17.3604 95.959 18.2441 96.3789 18.8398C96.7988 19.4355 97.4678 19.7334 98.3857 19.7334C99.2939 19.7334 100.007 19.5283 100.524 19.1182C101.042 18.6982 101.403 18.0879 101.608 17.2871C101.823 16.4766 101.931 15.4902 101.931 14.3281V6.62305H106.398ZM115.554 0.207031V5.50977C115.554 6.125 115.534 6.73535 115.495 7.34082C115.466 7.94629 115.427 8.41504 115.378 8.74707H115.554C115.983 8.07324 116.569 7.50195 117.312 7.0332C118.054 6.55469 119.016 6.31543 120.197 6.31543C122.033 6.31543 123.522 7.0332 124.665 8.46875C125.808 9.9043 126.379 12.0088 126.379 14.7822C126.379 16.6475 126.115 18.2148 125.588 19.4844C125.061 20.7441 124.323 21.6963 123.376 22.3408C122.429 22.9756 121.33 23.293 120.08 23.293C118.879 23.293 117.932 23.0781 117.238 22.6484C116.545 22.2188 115.983 21.7354 115.554 21.1982H115.246L114.499 23H111.086V0.207031H115.554ZM118.762 9.88965C117.98 9.88965 117.36 10.0508 116.901 10.373C116.442 10.6953 116.105 11.1787 115.891 11.8232C115.686 12.4678 115.573 13.2832 115.554 14.2695V14.7529C115.554 16.3447 115.788 17.5654 116.257 18.415C116.726 19.2549 117.58 19.6748 118.82 19.6748C119.738 19.6748 120.466 19.25 121.003 18.4004C121.55 17.5508 121.823 16.3252 121.823 14.7236C121.823 13.1221 121.55 11.916 121.003 11.1055C120.456 10.2949 119.709 9.88965 118.762 9.88965ZM129.44 20.9053C129.44 19.9873 129.689 19.3428 130.188 18.9717C130.695 18.6006 131.306 18.415 132.019 18.415C132.712 18.415 133.308 18.6006 133.806 18.9717C134.313 19.3428 134.567 19.9873 134.567 20.9053C134.567 21.7842 134.313 22.4189 133.806 22.8096C133.308 23.2002 132.712 23.3955 132.019 23.3955C131.306 23.3955 130.695 23.2002 130.188 22.8096C129.689 22.4189 129.44 21.7842 129.44 20.9053Z" fill="#FCC232"/>
</svg>
