<svg width="68" height="68" viewBox="0 0 68 68" fill="none" xmlns="http://www.w3.org/2000/svg">
<g filter="url(#filter0_d_21_246)">
<circle cx="24" cy="24" r="24" transform="matrix(1 0 0 -1 10 52)" fill="#FCC232"/>
</g>
<path d="M29.5325 35.999C31.1271 36.0079 32.7077 35.7353 34.1829 35.1971C35.658 34.6588 36.9982 33.8656 38.1257 32.8635C39.2532 31.8614 40.1457 30.6702 40.7513 29.3591C41.3569 28.0481 41.6635 26.6432 41.6535 25.226V24.731C42.4801 24.1927 43.1955 23.5313 43.7681 22.7761C42.9898 23.0786 42.1662 23.2793 41.3231 23.3718C42.217 22.8984 42.8877 22.1532 43.2111 21.2742C42.3781 21.7184 41.4645 22.0307 40.5113 22.1971C39.8693 21.5892 39.0197 21.1862 38.0941 21.0505C37.1685 20.9149 36.2184 21.0541 35.3907 21.4468C34.5631 21.8394 33.9042 22.4635 33.5158 23.2225C33.1275 23.9815 33.0314 24.8331 33.2424 25.6455C31.5489 25.5716 29.8919 25.1815 28.3793 24.5007C26.8666 23.8198 25.5323 22.8634 24.4632 21.6937C23.9241 22.5253 23.7607 23.508 24.0061 24.4426C24.2515 25.3773 24.8873 26.1941 25.7848 26.7278C25.1227 26.7051 24.4759 26.5442 23.8968 26.258V26.2999C23.8909 27.169 24.2203 28.0136 24.8301 28.693C25.44 29.3724 26.2933 29.8455 27.248 30.0335C26.6322 30.1808 25.9871 30.2037 25.36 30.1007C25.6364 30.8418 26.164 31.4889 26.8705 31.953C27.5769 32.4172 28.4276 32.6757 29.3059 32.6932C27.8042 33.7676 25.9378 34.359 24.0101 34.3713C23.6721 34.3626 23.3349 34.3374 23 34.2958C24.9512 35.4007 27.2189 35.9832 29.5325 35.9738" fill="#25272E"/>
<defs>
<filter id="filter0_d_21_246" x="0" y="0" width="68" height="68" filterUnits="userSpaceOnUse" color-interpolation-filters="sRGB">
<feFlood flood-opacity="0" result="BackgroundImageFix"/>
<feColorMatrix in="SourceAlpha" type="matrix" values="0 0 0 0 0 0 0 0 0 0 0 0 0 0 0 0 0 0 127 0" result="hardAlpha"/>
<feOffset dy="6"/>
<feGaussianBlur stdDeviation="5"/>
<feColorMatrix type="matrix" values="0 0 0 0 0.708333 0 0 0 0 0.504951 0 0 0 0 0 0 0 0 0.15 0"/>
<feBlend mode="normal" in2="BackgroundImageFix" result="effect1_dropShadow_21_246"/>
<feBlend mode="normal" in="SourceGraphic" in2="effect1_dropShadow_21_246" result="shape"/>
</filter>
</defs>
</svg>
